<svg width="30" height="30" viewBox="0 0 30 30" fill="none" xmlns="http://www.w3.org/2000/svg">
<path d="M26.4407 20.7747C31.1869 16.0284 31.1868 8.30567 26.4407 3.55943C21.6945 -1.1868 13.9718 -1.1868 9.22568 3.55943C5.19914 7.58597 4.58933 13.5745 7.39459 18.2508C7.39459 18.2508 7.59609 18.5889 7.32394 18.8608C5.77137 20.4133 1.11336 25.0714 1.11336 25.0714C-0.122798 26.3075 -0.417076 28.0359 0.679147 29.1324L0.867891 29.3209C1.96411 30.4173 3.69267 30.1231 4.92874 28.887C4.92874 28.887 9.57688 24.2387 11.1263 22.6894C11.4115 22.4043 11.7494 22.6058 11.7494 22.6058C16.4257 25.4109 22.4142 24.8012 26.4407 20.7747ZM11.473 18.5272C7.96604 15.0202 7.96613 9.31405 11.4731 5.80706C14.9801 2.30018 20.6863 2.30008 24.1932 5.80706C27.7002 9.31395 27.7002 15.0202 24.1932 18.5272C20.6862 22.034 14.9801 22.034 11.473 18.5272Z" fill="#4C4C66"/>
</svg>
