<svg width="244" height="66" viewBox="0 0 244 66" fill="none" xmlns="http://www.w3.org/2000/svg">
<path d="M58.9577 47.585C58.6517 46.9957 58.2267 46.5537 57.6827 46.259C57.1387 45.953 56.5097 45.8 55.7957 45.8C55.0137 45.8 54.3167 45.9757 53.7047 46.327C53.0927 46.6783 52.611 47.177 52.2597 47.823C51.9197 48.469 51.7497 49.217 51.7497 50.067C51.7497 50.917 51.9197 51.6707 52.2597 52.328C52.611 52.974 53.0927 53.4727 53.7047 53.824C54.3167 54.1753 55.0137 54.351 55.7957 54.351C56.8497 54.351 57.7054 54.0563 58.3627 53.467C59.02 52.8777 59.4224 52.0787 59.5697 51.07H55.1327V49.523H61.6437V51.036C61.519 51.954 61.1904 52.7983 60.6577 53.569C60.1364 54.3397 59.4507 54.9573 58.6007 55.422C57.762 55.8753 56.827 56.102 55.7957 56.102C54.685 56.102 53.6707 55.847 52.7527 55.337C51.8347 54.8157 51.1037 54.096 50.5597 53.178C50.027 52.26 49.7607 51.223 49.7607 50.067C49.7607 48.911 50.027 47.874 50.5597 46.956C51.1037 46.038 51.8347 45.324 52.7527 44.814C53.682 44.2927 54.6964 44.032 55.7957 44.032C57.0537 44.032 58.17 44.3437 59.1447 44.967C60.1307 45.579 60.8447 46.4517 61.2867 47.585H58.9577ZM70.7631 45.749V49.217H74.8431V50.798H70.7631V54.419H75.3531V56H68.8251V44.168H75.3531V45.749H70.7631ZM86.9032 56.119C86.1098 56.119 85.3958 55.983 84.7612 55.711C84.1265 55.4277 83.6278 55.031 83.2652 54.521C82.9025 54.011 82.7212 53.416 82.7212 52.736H84.7952C84.8405 53.246 85.0388 53.6653 85.3902 53.994C85.7528 54.3227 86.2572 54.487 86.9032 54.487C87.5718 54.487 88.0932 54.3283 88.4672 54.011C88.8412 53.6823 89.0282 53.263 89.0282 52.753C89.0282 52.3563 88.9092 52.0333 88.6712 51.784C88.4445 51.5347 88.1555 51.342 87.8042 51.206C87.4642 51.07 86.9882 50.9227 86.3762 50.764C85.6055 50.56 84.9765 50.356 84.4892 50.152C84.0132 49.9367 83.6052 49.608 83.2652 49.166C82.9252 48.724 82.7552 48.1347 82.7552 47.398C82.7552 46.718 82.9252 46.123 83.2652 45.613C83.6052 45.103 84.0812 44.712 84.6932 44.44C85.3052 44.168 86.0135 44.032 86.8182 44.032C87.9628 44.032 88.8978 44.321 89.6232 44.899C90.3598 45.4657 90.7678 46.2477 90.8472 47.245H88.7052C88.6712 46.8143 88.4672 46.446 88.0932 46.14C87.7192 45.834 87.2262 45.681 86.6142 45.681C86.0588 45.681 85.6055 45.8227 85.2542 46.106C84.9028 46.3893 84.7272 46.7973 84.7272 47.33C84.7272 47.6927 84.8348 47.993 85.0502 48.231C85.2768 48.4577 85.5602 48.639 85.9002 48.775C86.2402 48.911 86.7048 49.0583 87.2942 49.217C88.0762 49.4323 88.7108 49.6477 89.1982 49.863C89.6968 50.0783 90.1162 50.4127 90.4562 50.866C90.8075 51.308 90.9832 51.903 90.9832 52.651C90.9832 53.2517 90.8188 53.8183 90.4902 54.351C90.1728 54.8837 89.7025 55.3143 89.0792 55.643C88.4672 55.9603 87.7418 56.119 86.9032 56.119ZM106.173 44.185V45.766H103.028V56H101.09V45.766H97.9279V44.185H106.173ZM115.344 44.185V56H113.406V44.185H115.344ZM128.547 56.119C127.448 56.119 126.433 55.864 125.504 55.354C124.586 54.8327 123.855 54.113 123.311 53.195C122.778 52.2657 122.512 51.223 122.512 50.067C122.512 48.911 122.778 47.874 123.311 46.956C123.855 46.038 124.586 45.324 125.504 44.814C126.433 44.2927 127.448 44.032 128.547 44.032C129.658 44.032 130.672 44.2927 131.59 44.814C132.519 45.324 133.25 46.038 133.783 46.956C134.316 47.874 134.582 48.911 134.582 50.067C134.582 51.223 134.316 52.2657 133.783 53.195C133.25 54.113 132.519 54.8327 131.59 55.354C130.672 55.864 129.658 56.119 128.547 56.119ZM128.547 54.436C129.329 54.436 130.026 54.2603 130.638 53.909C131.25 53.5463 131.726 53.0363 132.066 52.379C132.417 51.7103 132.593 50.9397 132.593 50.067C132.593 49.1943 132.417 48.4293 132.066 47.772C131.726 47.1147 131.25 46.6103 130.638 46.259C130.026 45.9077 129.329 45.732 128.547 45.732C127.765 45.732 127.068 45.9077 126.456 46.259C125.844 46.6103 125.362 47.1147 125.011 47.772C124.671 48.4293 124.501 49.1943 124.501 50.067C124.501 50.9397 124.671 51.7103 125.011 52.379C125.362 53.0363 125.844 53.5463 126.456 53.909C127.068 54.2603 127.765 54.436 128.547 54.436ZM151.466 56H149.528L143.697 47.177V56H141.759V44.168H143.697L149.528 52.974V44.168H151.466V56ZM166.404 53.586H161.457L160.607 56H158.584L162.817 44.168H165.061L169.294 56H167.254L166.404 53.586ZM165.86 52.005L163.939 46.514L162.001 52.005H165.86ZM178.343 54.436H182.338V56H176.405V44.185H178.343V54.436ZM191.166 45.749V49.217H195.246V50.798H191.166V54.419H195.756V56H189.228V44.168H195.756V45.749H191.166Z" fill="#4C4C66"/>
<path d="M51.3563 34L47.1223 26.315H45.9333V34H40.9743V13.642H49.2973C50.9019 13.642 52.2649 13.9223 53.3863 14.483C54.5269 15.0437 55.3776 15.817 55.9383 16.803C56.4989 17.7697 56.7793 18.8523 56.7793 20.051C56.7793 21.4043 56.3926 22.6127 55.6193 23.676C54.8653 24.7393 53.7439 25.4933 52.2553 25.938L56.9533 34H51.3563ZM45.9333 22.806H49.0073C49.9159 22.806 50.5926 22.5837 51.0373 22.139C51.5013 21.6943 51.7333 21.066 51.7333 20.254C51.7333 19.4807 51.5013 18.8717 51.0373 18.427C50.5926 17.9823 49.9159 17.76 49.0073 17.76H45.9333V22.806ZM64.8512 17.615V21.733H71.4922V25.561H64.8512V30.027H72.3622V34H59.8922V13.642H72.3622V17.615H64.8512ZM88.2547 30.404H80.6567L79.4387 34H74.2477L81.6137 13.642H87.3557L94.7217 34H89.4727L88.2547 30.404ZM86.9787 26.576L84.4557 19.123L81.9617 26.576H86.9787ZM120.019 13.642V34H115.06V21.791L110.507 34H106.505L101.923 21.762V34H96.9635V13.642H102.822L108.535 27.736L114.19 13.642H120.019ZM151.599 13.642L146.292 34H140.289L137.041 20.602L133.677 34H127.674L122.512 13.642H127.819L130.748 28.461L134.373 13.642H139.825L143.305 28.461L146.263 13.642H151.599ZM163.714 34.203C161.8 34.203 160.04 33.7583 158.436 32.869C156.85 31.9797 155.584 30.7423 154.637 29.157C153.709 27.5523 153.245 25.7543 153.245 23.763C153.245 21.7717 153.709 19.9833 154.637 18.398C155.584 16.8127 156.85 15.5753 158.436 14.686C160.04 13.7967 161.8 13.352 163.714 13.352C165.628 13.352 167.377 13.7967 168.963 14.686C170.567 15.5753 171.824 16.8127 172.733 18.398C173.661 19.9833 174.125 21.7717 174.125 23.763C174.125 25.7543 173.661 27.5523 172.733 29.157C171.805 30.7423 170.548 31.9797 168.963 32.869C167.377 33.7583 165.628 34.203 163.714 34.203ZM163.714 29.679C165.338 29.679 166.633 29.1377 167.6 28.055C168.586 26.9723 169.079 25.5417 169.079 23.763C169.079 21.965 168.586 20.5343 167.6 19.471C166.633 18.3883 165.338 17.847 163.714 17.847C162.07 17.847 160.756 18.3787 159.77 19.442C158.803 20.5053 158.32 21.9457 158.32 23.763C158.32 25.561 158.803 27.0013 159.77 28.084C160.756 29.1473 162.07 29.679 163.714 29.679ZM187.265 34L183.031 26.315H181.842V34H176.883V13.642H185.206C186.811 13.642 188.174 13.9223 189.295 14.483C190.436 15.0437 191.287 15.817 191.847 16.803C192.408 17.7697 192.688 18.8523 192.688 20.051C192.688 21.4043 192.302 22.6127 191.528 23.676C190.774 24.7393 189.653 25.4933 188.164 25.938L192.862 34H187.265ZM181.842 22.806H184.916C185.825 22.806 186.502 22.5837 186.946 22.139C187.41 21.6943 187.642 21.066 187.642 20.254C187.642 19.4807 187.41 18.8717 186.946 18.427C186.502 17.9823 185.825 17.76 184.916 17.76H181.842V22.806ZM200.76 30.172H207.256V34H195.801V13.642H200.76V30.172Z" fill="#4C4C66"/>
<g clip-path="url(#clip0)">
<path d="M0 26.7831L9.48979 21.1586V16.5706L0 22.195V26.7831Z" fill="#4C4C66"/>
<path d="M32.483 9.54876C30.805 6.53275 28.424 4.1805 25.3515 2.51528C22.2789 0.838428 18.6961 0 14.5918 0H0V17.4905L9.4898 11.8661V8.31441H13.9796C17.5624 8.31441 20.3628 9.33916 22.3583 11.3886C24.3537 13.4381 25.3515 16.3028 25.3515 19.9942C25.3515 23.6739 24.3537 26.5269 22.3583 28.5415C20.3628 30.556 17.5737 31.5575 13.9796 31.5575H9.4898V25.8515L0 31.4876V40H14.5918C18.6621 40 22.2336 39.1616 25.3288 37.4964C28.4127 35.8195 30.805 33.4672 32.483 30.4279C34.161 27.3886 35.0113 23.9185 35.0113 20.0058C35 16.0466 34.161 12.5648 32.483 9.54876Z" fill="#4C4C66"/>
</g>
<g clip-path="url(#clip1)">
<path d="M244 26.7831L234.51 21.1586V16.5706L244 22.195V26.7831Z" fill="#4C4C66"/>
<path d="M211.517 9.54876C213.195 6.53275 215.576 4.1805 218.649 2.51528C221.721 0.838428 225.304 0 229.408 0H244V17.4905L234.51 11.8661V8.31441H230.02C226.438 8.31441 223.637 9.33916 221.642 11.3886C219.646 13.4381 218.649 16.3028 218.649 19.9942C218.649 23.6739 219.646 26.5269 221.642 28.5415C223.637 30.556 226.426 31.5575 230.02 31.5575H234.51V25.8515L244 31.4876V40H229.408C225.338 40 221.766 39.1616 218.671 37.4964C215.587 35.8195 213.195 33.4672 211.517 30.4279C209.839 27.3886 208.989 23.9185 208.989 20.0058C209 16.0466 209.839 12.5648 211.517 9.54876Z" fill="#4C4C66"/>
</g>
<defs>
<clipPath id="clip0">
<rect width="35" height="40" fill="white"/>
</clipPath>
<clipPath id="clip1">
<rect width="35" height="40" fill="white" transform="matrix(-1 0 0 1 244 0)"/>
</clipPath>
</defs>
</svg>
